<?xml version="1.0" encoding="UTF-8"?>
<svg xmlns="http://www.w3.org/2000/svg" xmlns:xlink="http://www.w3.org/1999/xlink" width="256px" height="256px" viewBox="0 0 256 256" version="1.1">
<g id="surface1">
<path style=" stroke:none;fill-rule:nonzero;fill:rgb(0%,0%,0%);fill-opacity:1;" d="M 108.585938 181.417969 C 109.867188 181.417969 110.835938 181.375 111.476562 181.289062 C 112.226562 181.140625 112.90625 180.734375 113.398438 180.148438 C 114.039062 179.476562 114.355469 178.507812 114.355469 177.226562 L 114.316406 171.285156 C 114.28125 167.5 114.273438 164.492188 114.273438 162.28125 L 112.265625 162.632812 C 110.660156 162.886719 109.035156 162.988281 107.414062 162.933594 C 105.375 162.898438 103.339844 162.695312 101.332031 162.324219 C 99.203125 161.929688 97.199219 161.027344 95.488281 159.703125 C 93.695312 158.34375 92.355469 156.472656 91.648438 154.335938 L 90.773438 152.320312 C 90.039062 150.730469 89.113281 149.238281 88.019531 147.871094 C 87.039062 146.46875 85.734375 145.328125 84.214844 144.542969 L 83.605469 144.117188 C 83.1875 143.808594 82.808594 143.449219 82.476562 143.050781 C 82.152344 142.6875 81.886719 142.277344 81.683594 141.835938 C 81.515625 141.429688 81.652344 141.089844 82.113281 140.832031 C 82.917969 140.507812 83.785156 140.375 84.652344 140.4375 L 86.398438 140.703125 C 87.574219 140.929688 89.011719 141.632812 90.730469 142.792969 C 92.4375 143.96875 93.855469 145.472656 94.964844 147.339844 C 96.308594 149.726562 97.921875 151.550781 99.820312 152.800781 C 101.496094 153.980469 103.484375 154.636719 105.535156 154.675781 C 107.457031 154.675781 109.121094 154.539062 110.515625 154.25 C 111.878906 153.96875 113.199219 153.523438 114.453125 152.929688 C 114.976562 149.035156 116.394531 146.027344 118.71875 143.9375 C 115.703125 143.636719 112.710938 143.109375 109.769531 142.355469 C 106.902344 141.566406 104.140625 140.417969 101.558594 138.945312 C 98.851562 137.476562 96.457031 135.488281 94.515625 133.097656 C 92.660156 130.761719 91.136719 127.710938 89.929688 123.925781 C 88.675781 119.671875 88.074219 115.25 88.148438 110.816406 C 88.148438 103.777344 90.453125 97.769531 95.050781 92.820312 C 92.894531 87.519531 93.097656 81.578125 95.660156 74.996094 C 97.355469 74.464844 99.863281 74.859375 103.179688 76.171875 C 106.496094 77.484375 108.9375 78.601562 110.476562 79.542969 C 112.019531 80.46875 113.246094 81.246094 114.1875 81.886719 C 119.648438 80.371094 125.296875 79.609375 130.964844 79.625 C 136.726562 79.625 142.324219 80.375 147.742188 81.898438 L 151.050781 79.796875 C 153.332031 78.410156 156.011719 77.121094 159.09375 75.957031 C 162.1875 74.785156 164.542969 74.464844 166.175781 74.996094 C 168.800781 81.578125 169.035156 87.519531 166.871094 92.8125 C 171.476562 97.769531 173.78125 103.765625 173.78125 110.816406 C 173.78125 115.765625 173.183594 120.148438 171.988281 123.96875 C 170.792969 127.785156 169.246094 130.835938 167.359375 133.140625 C 165.386719 135.507812 162.984375 137.480469 160.277344 138.953125 C 157.691406 140.429688 154.933594 141.578125 152.0625 142.367188 C 149.121094 143.117188 146.125 143.640625 143.105469 143.9375 C 146.132812 146.550781 147.648438 150.6875 147.648438 156.339844 L 147.648438 177.214844 C 147.648438 178.207031 147.796875 179.007812 148.085938 179.625 C 148.359375 180.222656 148.863281 180.679688 149.484375 180.894531 C 150.121094 181.121094 150.699219 181.269531 151.1875 181.324219 C 151.691406 181.386719 152.394531 181.417969 153.324219 181.417969 Z M 108.585938 181.417969 "/>
<path style=" stroke:none;fill-rule:nonzero;fill:rgb(0%,0%,0%);fill-opacity:1;" d="M 128 213.332031 C 175.128906 213.332031 213.332031 175.128906 213.332031 128 C 213.332031 80.871094 175.128906 42.667969 128 42.667969 C 80.871094 42.667969 42.667969 80.871094 42.667969 128 C 42.667969 175.128906 80.871094 213.332031 128 213.332031 Z M 128 234.667969 C 69.089844 234.667969 21.332031 186.910156 21.332031 128 C 21.332031 69.089844 69.089844 21.332031 128 21.332031 C 186.910156 21.332031 234.667969 69.089844 234.667969 128 C 234.667969 186.910156 186.910156 234.667969 128 234.667969 Z M 128 234.667969 "/>
</g>
</svg>
