<?xml version="1.0" encoding="UTF-8"?>
<svg xmlns="http://www.w3.org/2000/svg" xmlns:xlink="http://www.w3.org/1999/xlink" width="256px" height="256px" viewBox="0 0 256 256" version="1.1">
<g id="surface1">
<path style=" stroke:none;fill-rule:nonzero;fill:rgb(0%,0%,0%);fill-opacity:1;" d="M 66.710938 106.640625 L 92.929688 106.640625 L 92.929688 190.941406 L 66.710938 190.941406 Z M 66.710938 106.640625 "/>
<path style=" stroke:none;fill-rule:nonzero;fill:rgb(0%,0%,0%);fill-opacity:1;" d="M 79.816406 95.136719 C 71.421875 95.136719 64.632812 88.328125 64.632812 79.945312 C 64.632812 71.554688 71.421875 64.742188 79.820312 64.742188 C 88.199219 64.742188 95.007812 71.550781 95.007812 79.945312 C 95.003906 88.328125 88.195312 95.136719 79.816406 95.136719 Z M 79.816406 95.136719 "/>
<path style=" stroke:none;fill-rule:nonzero;fill:rgb(0%,0%,0%);fill-opacity:1;" d="M 191.082031 190.96875 L 164.890625 190.96875 L 164.890625 149.96875 C 164.890625 140.191406 164.722656 127.613281 151.269531 127.613281 C 137.632812 127.613281 135.550781 138.269531 135.550781 149.265625 L 135.550781 190.96875 L 109.359375 190.96875 L 109.359375 106.65625 L 134.492188 106.65625 L 134.492188 118.183594 L 134.851562 118.183594 C 138.347656 111.554688 146.898438 104.566406 159.644531 104.566406 C 186.183594 104.566406 191.082031 122.023438 191.082031 144.726562 Z M 191.082031 190.96875 "/>
<path style=" stroke:none;fill-rule:nonzero;fill:rgb(0%,0%,0%);fill-opacity:1;" d="M 127.855469 254.304688 C 58.132812 254.304688 1.40625 197.582031 1.40625 127.855469 C 1.40625 58.132812 58.132812 1.40625 127.855469 1.40625 C 197.582031 1.40625 254.304688 58.132812 254.304688 127.855469 C 254.304688 197.582031 197.582031 254.304688 127.855469 254.304688 Z M 127.855469 18.265625 C 67.425781 18.265625 18.265625 67.425781 18.265625 127.855469 C 18.265625 188.285156 67.425781 237.445312 127.855469 237.445312 C 188.285156 237.445312 237.445312 188.285156 237.445312 127.855469 C 237.445312 67.425781 188.285156 18.265625 127.855469 18.265625 Z M 127.855469 18.265625 "/>
</g>
</svg>
